<svg width="39" height="25" viewBox="0 0 39 25" fill="none" xmlns="http://www.w3.org/2000/svg">
<path d="M0 12.5C0 11.1193 1.11929 10 2.5 10H35C36.3807 10 37.5 11.1193 37.5 12.5C37.5 13.8807 36.3807 15 35 15H2.5C1.11929 15 0 13.8807 0 12.5Z" fill="#49F78E"/>
<path d="M0 22.5C0 21.1193 1.11929 20 2.5 20H16.25C17.6307 20 18.75 21.1193 18.75 22.5C18.75 23.8807 17.6307 25 16.25 25H2.5C1.11929 25 0 23.8807 0 22.5Z" fill="black"/>
<path d="M20 2.5C20 1.11929 21.1193 0 22.5 0H36.25C37.6307 0 38.75 1.11929 38.75 2.5C38.75 3.88071 37.6307 5 36.25 5H22.5C21.1193 5 20 3.88071 20 2.5Z" fill="black"/>
</svg>
