<svg width="38" height="25" viewBox="0 0 38 25" fill="none" xmlns="http://www.w3.org/2000/svg">
<path d="M0 12.5C0 11.1647 1.16468 10 2.5 10H22.5C23.8353 10 25 11.1647 25 12.5C25 13.8353 23.8353 15 22.5 15H2.5C1.16468 15 0 13.8353 0 12.5Z" fill="#49F78E"/>
<path d="M0 22.5C0 21.1647 1.16468 20 2.5 20H29.0138C30.3491 20 31.5 21.1647 31.5 22.5C31.5 23.8353 30.3491 25 29.0138 25H2.41782C1.08249 25 0 23.8353 0 22.5Z" fill="black"/>
<path d="M0 2.41782C0 1.08249 1.08249 0 2.41782 0H29.0138C30.3491 0 31.4316 1.08249 31.4316 2.41782C31.4316 3.75314 30.3491 4.83563 29.0138 4.83563L2.41782 5C1.08249 5 0 3.75314 0 2.41782Z" fill="black"/>
<path d="M32.8823 12.21L37.5567 16.8844C37.8522 17.1799 38 17.556 38 18.0127C38 18.4694 37.8522 18.8455 37.5567 19.141C37.2612 19.4365 36.8851 19.5843 36.4284 19.5843C35.9717 19.5843 35.5956 19.4365 35.3001 19.141L29.4973 13.3383C29.175 13.0159 29.0138 12.6398 29.0138 12.21C29.0138 11.7801 29.175 11.404 29.4973 11.0817L35.3001 5.2789C35.5956 4.98339 35.9717 4.83563 36.4284 4.83563C36.8851 4.83563 37.2612 4.98339 37.5567 5.2789C37.8522 5.57441 38 5.95051 38 6.40721C38 6.86391 37.8522 7.24001 37.5567 7.53552L32.8823 12.21Z" fill="#49F78E"/>
</svg>
