<svg width="27" height="24" viewBox="0 0 27 24" fill="none" xmlns="http://www.w3.org/2000/svg">
<path d="M3.70248 20.4L22.7044 12.92C22.9008 12.8432 23.0683 12.715 23.186 12.5514C23.3038 12.3879 23.3665 12.1961 23.3665 12C23.3665 11.804 23.3038 11.6122 23.186 11.4486C23.0683 11.2851 22.9008 11.1569 22.7044 11.08L3.70248 3.60003C3.53795 3.53412 3.35813 3.50687 3.17926 3.52073C3.00039 3.53459 2.82809 3.58912 2.67791 3.67942C2.52772 3.76971 2.40438 3.89292 2.319 4.03793C2.23362 4.18293 2.1889 4.34518 2.18887 4.51003L2.17798 9.12003C2.17798 9.62003 2.58088 10.05 3.12535 10.11L18.512 12L3.12535 13.88C2.58088 13.95 2.17798 14.38 2.17798 14.88L2.18887 19.49C2.18887 20.2 2.98379 20.69 3.70248 20.4Z" fill="#49F78E"/>
</svg>
